<mxfile host="app.diagrams.net" modified="2022-09-07T14:54:02.866Z" agent="5.0 (Windows NT 10.0; Win64; x64) AppleWebKit/537.36 (KHTML, like Gecko) Chrome/105.0.0.0 Safari/537.36" etag="FAh4PAOGQCQ9ECvbfX6h" version="18.0.3" type="github">
  <diagram id="NbBu9uwxGzy0OiVpS7tp" name="Page-1">
    <mxGraphModel dx="1038" dy="539" grid="1" gridSize="10" guides="1" tooltips="1" connect="1" arrows="1" fold="1" page="1" pageScale="1" pageWidth="827" pageHeight="1169" math="0" shadow="0">
      <root>
        <mxCell id="0" />
        <mxCell id="1" parent="0" />
        <mxCell id="NZDZEB57lwOKLgj8j775-1" value="" style="rounded=0;whiteSpace=wrap;html=1;" vertex="1" parent="1">
          <mxGeometry x="168" y="118" width="248" height="200" as="geometry" />
        </mxCell>
        <mxCell id="NZDZEB57lwOKLgj8j775-2" value="" style="rounded=0;whiteSpace=wrap;html=1;fillColor=#f8cecc;strokeColor=#b85450;" vertex="1" parent="1">
          <mxGeometry x="20" y="380" width="126" height="108" as="geometry" />
        </mxCell>
        <mxCell id="NZDZEB57lwOKLgj8j775-3" value="" style="rounded=0;whiteSpace=wrap;html=1;fillColor=#dae8fc;strokeColor=#6c8ebf;" vertex="1" parent="1">
          <mxGeometry x="168" y="118" width="126" height="82" as="geometry" />
        </mxCell>
        <mxCell id="NZDZEB57lwOKLgj8j775-4" value="" style="rounded=0;whiteSpace=wrap;html=1;fillColor=#d5e8d4;strokeColor=#82b366;" vertex="1" parent="1">
          <mxGeometry x="302" y="118" width="114" height="82" as="geometry" />
        </mxCell>
        <mxCell id="NZDZEB57lwOKLgj8j775-5" value="" style="rounded=0;whiteSpace=wrap;html=1;fillColor=#fff2cc;strokeColor=#d6b656;" vertex="1" parent="1">
          <mxGeometry x="301" y="210" width="115" height="108" as="geometry" />
        </mxCell>
        <mxCell id="NZDZEB57lwOKLgj8j775-6" value="" style="rounded=0;whiteSpace=wrap;html=1;" vertex="1" parent="1">
          <mxGeometry x="320" y="560" width="240" height="160" as="geometry" />
        </mxCell>
        <mxCell id="NZDZEB57lwOKLgj8j775-8" value="" style="rounded=0;whiteSpace=wrap;html=1;fillColor=#fff2cc;strokeColor=#d6b656;" vertex="1" parent="1">
          <mxGeometry x="320" y="640" width="120" height="80" as="geometry" />
        </mxCell>
        <mxCell id="NZDZEB57lwOKLgj8j775-9" value="" style="rounded=0;whiteSpace=wrap;html=1;fillColor=#d5e8d4;strokeColor=#82b366;" vertex="1" parent="1">
          <mxGeometry x="320" y="560" width="120" height="70" as="geometry" />
        </mxCell>
        <mxCell id="NZDZEB57lwOKLgj8j775-10" value="" style="rounded=0;whiteSpace=wrap;html=1;fillColor=#dae8fc;strokeColor=#6c8ebf;" vertex="1" parent="1">
          <mxGeometry x="450" y="640" width="110" height="80" as="geometry" />
        </mxCell>
        <mxCell id="NZDZEB57lwOKLgj8j775-11" value="" style="rounded=0;whiteSpace=wrap;html=1;fillColor=#e1d5e7;strokeColor=#9673a6;" vertex="1" parent="1">
          <mxGeometry x="450" y="560" width="110" height="70" as="geometry" />
        </mxCell>
      </root>
    </mxGraphModel>
  </diagram>
</mxfile>
